<?xml version="1.0" standalone="no"?>
<!DOCTYPE svg PUBLIC "-//W3C//DTD SVG 20010904//EN"
 "http://www.w3.org/TR/2001/REC-SVG-20010904/DTD/svg10.dtd">
<svg version="1.0" xmlns="http://www.w3.org/2000/svg"
 width="2508.000000pt" height="650.000000pt" viewBox="0 0 2508.000000 650.000000"
 preserveAspectRatio="xMidYMid meet">

<g transform="translate(0.000000,650.000000) scale(0.100000,-0.100000)"
fill="#000000" stroke="none">
<path d="M6785 6493 c-184 -13 -439 -62 -620 -120 -386 -124 -711 -319 -985
-593 -108 -107 -290 -328 -290 -352 0 -5 142 -8 315 -8 l315 0 107 95 c480
429 1124 599 1773 469 777 -155 1366 -740 1461 -1451 14 -109 6 -378 -15 -483
-129 -630 -655 -1150 -1341 -1325 -307 -78 -641 -87 -950 -24 -656 134 -1195
587 -1389 1169 -13 41 -28 92 -31 113 l-7 37 -269 0 c-257 0 -269 -1 -269 -19
0 -10 13 -70 29 -132 95 -376 289 -702 592 -994 362 -350 823 -571 1376 -661
149 -24 525 -30 693 -10 605 70 1126 318 1527 727 272 277 446 585 538 954 75
297 73 639 -4 942 -130 508 -479 970 -967 1278 -113 72 -339 183 -468 230
-346 127 -747 184 -1121 158z"/>
<path d="M10410 5650 l0 -100 1795 0 1795 0 0 100 0 100 -1795 0 -1795 0 0
-100z"/>
<path d="M10270 5333 c-30 -8 -92 -32 -137 -53 -272 -127 -436 -347 -500 -669
-23 -117 -22 -379 2 -516 62 -361 236 -616 507 -745 159 -76 -10 -71 2084 -68
l1879 3 70 26 c325 121 504 318 588 646 19 78 22 113 22 313 0 193 -3 241 -23
337 -84 416 -261 650 -550 724 -73 18 -128 19 -1981 18 -1652 -1 -1913 -3
-1961 -16z m3703 -377 c176 -63 307 -335 307 -638 0 -231 -80 -434 -221 -561
-32 -29 -78 -63 -102 -75 l-44 -22 -1710 0 c-1898 0 -1751 -5 -1848 68 -97 73
-168 193 -213 362 -22 81 -25 116 -25 240 0 123 4 160 26 241 45 170 121 290
229 360 l61 39 1751 0 c1448 -1 1758 -3 1789 -14z"/>
<path d="M15645 5335 c-149 -33 -254 -93 -356 -203 -116 -125 -199 -323 -236
-557 -20 -132 -12 -409 16 -545 80 -397 292 -647 615 -730 78 -20 105 -20
1955 -20 1852 0 1877 0 1949 20 241 67 439 237 543 465 36 80 75 212 84 288
l7 57 569 0 569 0 0 194 c0 107 -3 201 -6 210 -6 15 -176 16 -1825 16 l-1819
0 0 -200 0 -200 986 0 987 0 -6 -72 c-12 -144 -115 -292 -254 -365 l-61 -33
-1763 0 -1764 0 -70 53 c-123 92 -172 191 -200 403 -20 148 -19 384 1 482 33
161 132 305 249 363 l50 24 1749 3 1749 2 53 -24 c65 -30 143 -101 196 -178
l39 -58 260 0 259 0 -15 38 c-96 230 -257 416 -437 506 -166 83 16 76 -2113
75 -1537 0 -1911 -3 -1960 -14z"/>
<path d="M3720 5155 l0 -165 1883 -2 1882 -3 45 -24 c90 -48 133 -130 132
-256 -1 -104 -37 -167 -124 -211 l-47 -24 -1464 0 -1464 0 -6 -62 c-4 -46 5
-263 12 -296 1 -1 697 -1 1549 1 1383 2 1552 4 1597 18 76 24 123 48 194 97
145 103 223 261 237 482 6 91 5 104 -31 273 -14 66 -127 210 -190 244 -68 36
-103 52 -150 69 -48 18 -128 19 -2052 22 l-2003 2 0 -165z"/>
<path d="M6517 3992 c12 -9 56 -44 99 -77 42 -33 108 -85 145 -115 38 -30 99
-79 137 -108 37 -29 132 -105 212 -168 80 -63 168 -132 195 -154 28 -22 82
-64 120 -95 39 -30 103 -81 143 -112 40 -32 101 -81 135 -109 102 -84 89 -83
218 -2 63 39 126 80 141 92 15 11 41 31 58 44 32 25 39 42 16 42 -7 0 -19 7
-26 16 -8 8 -39 34 -69 58 -31 23 -85 64 -120 92 -35 27 -78 60 -96 74 -18 14
-70 54 -115 90 -46 36 -98 76 -116 90 -18 14 -85 66 -149 115 -63 50 -133 104
-155 120 -21 17 -66 51 -99 78 l-61 47 -318 0 c-301 -1 -316 -2 -295 -18z"/>
<path d="M20540 3140 c0 -29 2 -30 45 -30 l45 0 0 -125 0 -125 35 0 35 0 0
125 0 125 45 0 c43 0 45 1 45 30 l0 30 -125 0 -125 0 0 -30z"/>
<path d="M20820 3015 l0 -155 30 0 30 0 1 93 0 92 33 -90 c31 -84 35 -90 61
-90 26 0 30 6 64 100 l36 100 3 -102 3 -103 29 0 30 0 0 155 0 155 -42 0 -43
0 -39 -112 -39 -112 -14 39 c-7 22 -25 73 -39 113 l-26 72 -39 0 -39 0 0 -155z"/>
<path d="M9570 1426 l0 -756 345 0 345 0 0 300 0 300 548 0 c301 0 612 5 692
10 500 36 872 173 960 356 32 66 25 158 -16 216 -80 115 -293 218 -552 268
-259 50 -305 52 -1344 57 l-978 4 0 -755z m1870 500 c124 -23 215 -61 266
-111 40 -38 44 -46 44 -90 0 -44 -4 -52 -44 -91 -50 -47 -117 -76 -251 -107
-83 -19 -131 -20 -642 -24 l-553 -5 0 227 0 227 548 -5 c448 -4 562 -8 632
-21z"/>
<path d="M13010 2055 l0 -125 320 0 320 0 0 125 0 125 -320 0 -320 0 0 -125z"/>
<path d="M19715 1989 c-188 -18 -359 -82 -429 -159 l-37 -41 -279 13 c-309 13
-673 2 -870 -27 -291 -44 -516 -139 -564 -239 -32 -67 -16 -128 49 -184 48
-43 99 -68 219 -107 90 -30 98 -34 71 -40 -287 -66 -415 -135 -415 -226 0 -54
79 -114 214 -165 l48 -18 -109 -27 c-196 -48 -303 -117 -303 -195 0 -153 246
-242 795 -286 210 -16 951 -16 1145 0 502 44 830 143 910 275 40 65 19 147
-52 201 -52 39 -173 91 -268 115 -200 49 -256 53 -970 61 -693 7 -720 9 -799
50 -50 25 -65 44 -57 74 8 31 56 61 132 81 51 14 76 14 189 3 168 -16 677 -16
820 0 543 61 837 221 722 393 -38 56 -93 88 -291 168 -18 7 -16 9 13 30 74 53
130 64 364 69 l217 5 0 93 0 94 -187 -1 c-104 -1 -228 -6 -278 -10z m-692
-364 c86 -19 171 -59 197 -92 44 -57 12 -136 -73 -178 -99 -48 -180 -59 -427
-59 -247 0 -319 10 -431 60 -72 33 -99 63 -99 115 0 32 6 43 42 74 48 41 160
79 273 94 102 14 436 5 518 -14z m-793 -915 c80 -5 348 -10 595 -10 467 0 594
-9 682 -45 113 -47 94 -125 -42 -169 -103 -33 -246 -47 -530 -53 -411 -8 -745
20 -905 75 -185 64 -216 127 -93 191 47 25 66 30 103 26 25 -3 110 -10 190
-15z"/>
<path d="M15686 1800 c-248 -29 -460 -106 -605 -220 -28 -22 -53 -40 -56 -40
-3 0 -5 56 -5 125 l0 125 -295 0 -295 0 0 -560 0 -560 319 0 320 0 3 318 c3
278 5 322 21 357 42 94 154 167 326 213 85 22 117 25 271 26 140 1 188 -3 239
-17 75 -21 136 -50 169 -81 52 -46 52 -49 52 -446 l0 -370 325 0 326 0 -3 403
-3 402 -28 57 c-64 130 -223 206 -528 253 -125 19 -443 27 -553 15z"/>
<path d="M13010 1230 l0 -560 320 0 320 0 0 560 0 560 -320 0 -320 0 0 -560z"/>
<path d="M5640 1566 c0 -2 9 -6 20 -9 11 -3 20 -1 20 4 0 5 -9 9 -20 9 -11 0
-20 -2 -20 -4z"/>
</g>
</svg>
